<svg id="레이어_1" data-name="레이어 1" xmlns="http://www.w3.org/2000/svg" viewBox="0 0 42.924 13.128"><defs><style>.cls-1{fill:#ffcd00;}</style></defs><title>kakaosvg</title><g id="kakao_CI_BI" data-name="kakao CI/BI"><path class="cls-1" d="M4.034,30.336h-1.5V17.762l1.5-.326Zm4-9.125,1.172.845-2.88,3.611,3.335,4-1.156.895L4.571,25.748Z" transform="translate(-2.538 -17.436)"/><path class="cls-1" d="M10.988,27.945a2.454,2.454,0,0,1,.9-2.058,4.186,4.186,0,0,1,2.626-.708h1.726V24.61q0-2.065-1.823-2.066a4.964,4.964,0,0,0-1.227.163,6.919,6.919,0,0,0-1.18.407l-.44-1.058a6.186,6.186,0,0,1,1.441-.578,5.912,5.912,0,0,1,1.5-.2q3.158,0,3.156,3.367v5.694h-1.1l-.179-.976a5.322,5.322,0,0,1-1.424.829,3.967,3.967,0,0,1-1.44.293,2.337,2.337,0,0,1-2.537-2.537ZM13.8,29.279a2.644,2.644,0,0,0,.64-.082,5.15,5.15,0,0,0,.664-.211,3.62,3.62,0,0,0,.624-.317,3.677,3.677,0,0,0,.519-.4V26.188H14.687a2.9,2.9,0,0,0-1.725.407,1.5,1.5,0,0,0-.542,1.285A1.226,1.226,0,0,0,13.8,29.279Z" transform="translate(-2.538 -17.436)"/><path class="cls-1" d="M21.833,30.336h-1.5V17.762l1.5-.326Zm4-9.125,1.171.845-2.878,3.611,3.334,4-1.154.895L22.37,25.748Z" transform="translate(-2.538 -17.436)"/><path class="cls-1" d="M28.787,27.945a2.459,2.459,0,0,1,.9-2.058,4.19,4.19,0,0,1,2.628-.708h1.724V24.61q0-2.065-1.822-2.066a4.972,4.972,0,0,0-1.228.163,6.878,6.878,0,0,0-1.179.407l-.44-1.058a6.2,6.2,0,0,1,1.44-.578,5.915,5.915,0,0,1,1.5-.2q3.155,0,3.155,3.367v5.694H34.366l-.179-.976a5.306,5.306,0,0,1-1.424.829,3.966,3.966,0,0,1-1.439.293,2.336,2.336,0,0,1-2.537-2.537ZM31.6,29.279a2.65,2.65,0,0,0,.64-.082,5.15,5.15,0,0,0,.664-.211,3.656,3.656,0,0,0,.624-.317,3.725,3.725,0,0,0,.518-.4V26.188H32.486a2.9,2.9,0,0,0-1.725.407,1.5,1.5,0,0,0-.542,1.285A1.226,1.226,0,0,0,31.6,29.279Z" transform="translate(-2.538 -17.436)"/><path class="cls-1" d="M41.493,21.292A3.673,3.673,0,0,1,44.4,22.5a5.062,5.062,0,0,1,1.058,3.449,4.972,4.972,0,0,1-1.049,3.4,4.174,4.174,0,0,1-5.831,0,4.944,4.944,0,0,1-1.058-3.4A5.043,5.043,0,0,1,38.589,22.5,3.683,3.683,0,0,1,41.493,21.292Zm0,1.2a2.072,2.072,0,0,0-1.8.879,4.4,4.4,0,0,0-.627,2.57,4.249,4.249,0,0,0,.627,2.529,2.336,2.336,0,0,0,3.611,0,4.256,4.256,0,0,0,.626-2.529,4.409,4.409,0,0,0-.626-2.57A2.091,2.091,0,0,0,41.493,22.5Z" transform="translate(-2.538 -17.436)"/></g></svg>