<svg id="Layer_1" data-name="Layer 1" xmlns="http://www.w3.org/2000/svg" viewBox="0 0 38.605 36"><defs><style>.cls-1{fill:#444;}</style></defs><title>menu</title><path class="cls-1" d="M9.2,14.5a4,4,0,1,1,0-8H38.8a4,4,0,0,1,0,8Z" transform="translate(-4.697 -6)"/><path class="cls-1" d="M38.8,7a3.5,3.5,0,0,1,0,7H9.2a3.5,3.5,0,1,1,0-7H38.8m0-1H9.2a4.5,4.5,0,1,0,0,9H38.8a4.5,4.5,0,0,0,0-9Z" transform="translate(-4.697 -6)"/><path class="cls-1" d="M9.2,28a4,4,0,1,1,0-8H38.8a4,4,0,0,1,0,8Z" transform="translate(-4.697 -6)"/><path class="cls-1" d="M38.8,20.5a3.5,3.5,0,0,1,0,7H9.2a3.5,3.5,0,1,1,0-7H38.8m0-1H9.2a4.5,4.5,0,1,0,0,9H38.8a4.5,4.5,0,0,0,0-9Z" transform="translate(-4.697 -6)"/><path class="cls-1" d="M9.2,41.5a4,4,0,1,1,0-8H38.8a4,4,0,0,1,0,8Z" transform="translate(-4.697 -6)"/><path class="cls-1" d="M38.8,34a3.5,3.5,0,0,1,0,7H9.2a3.5,3.5,0,1,1,0-7H38.8m0-1H9.2a4.5,4.5,0,1,0,0,9H38.8a4.5,4.5,0,0,0,0-9Z" transform="translate(-4.697 -6)"/></svg>