<svg id="Layer_1" data-name="Layer 1" xmlns="http://www.w3.org/2000/svg" viewBox="0 0 28.087 10"><defs><style>.cls-1{fill:#f2be8b;}.cls-2{fill:#e8a761;}</style></defs><title>mv_logosvg</title><rect class="cls-1" y="0.972" width="9.028" height="9.028" rx="0.658"/><circle class="cls-2" cx="6.868" cy="3.728" r="3.728"/><path class="cls-2" d="M19.637,16.331H15.47V12.845h4.167Zm2.5,1.94c0,1.162-1.408,1.563-3.192,1.563s-3.192-.4-3.192-1.563,1.408-1.564,3.192-1.564S22.133,17.109,22.133,18.271Zm-3.855-4.289H16.829v1.211h1.449Zm2.366,4.289c0-.327-.762-.459-1.7-.459s-1.7.132-1.7.459.762.458,1.7.458S20.644,18.606,20.644,18.271Zm.065-2.3h-.745V14.793h.745v-.475h-.745V13.139h.745v-.377h1.359V16.61H20.709Z" transform="translate(-1.957 -11)"/><path class="cls-2" d="M30.043,18.885v.867H23.717V17.9h4.894v-.246H23.7V16.79h1.162v-.328H23.151v-.99h3.218a5.809,5.809,0,0,0,1.808-.246v.982a5.111,5.111,0,0,1-1.833.254h-.123v.328h3.74v1.849h-4.9v.246Zm-6.6-4.9c0-.843.858-1.293,2.111-1.293s2.112.45,2.112,1.293-.86,1.293-2.112,1.293S23.439,14.825,23.439,13.982Zm1.317,0c0,.229.3.352.794.352s.794-.123.794-.352-.3-.352-.794-.352S24.756,13.753,24.756,13.982Zm3.822.663H27.94V13.417h.638v-.655h1.383v3.782H28.578Z" transform="translate(-1.957 -11)"/></svg>