<svg id="레이어_1" data-name="레이어 1" xmlns="http://www.w3.org/2000/svg" viewBox="0 0 42.322 42.322"><defs><style>.cls-1,.cls-2{fill:#e8a761;stroke:#e8a761;stroke-miterlimit:10;}.cls-1{stroke-width:2px;}.cls-2{stroke-width:0.75px;}</style></defs><title>share</title><path class="cls-1" d="M31.864,30.3a3.31,3.31,0,0,0-2.644,1.328L18.972,25.713a3.232,3.232,0,0,0,.037-3.358L29.27,16.431A3.362,3.362,0,1,0,29,16.044L18.748,21.966A3.326,3.326,0,1,0,18.7,26.1l10.27,5.929a3.281,3.281,0,0,0-.429,1.6A3.325,3.325,0,1,0,31.864,30.3Z" transform="translate(-2.839 -2.839)"/><path class="cls-2" d="M3.214,5.326V42.674a2.113,2.113,0,0,0,2.112,2.112H42.674a2.113,2.113,0,0,0,2.112-2.112V5.326a2.113,2.113,0,0,0-2.112-2.112H5.326A2.113,2.113,0,0,0,3.214,5.326ZM40.572,42.684H7.428a2.111,2.111,0,0,1-2.112-2.112V7.428A2.111,2.111,0,0,1,7.428,5.316H40.572a2.111,2.111,0,0,1,2.112,2.112V40.572A2.111,2.111,0,0,1,40.572,42.684Z" transform="translate(-2.839 -2.839)"/></svg>