<svg id="레이어_1" data-name="레이어 1" xmlns="http://www.w3.org/2000/svg" viewBox="0 0 43.364 38.381"><defs><style>.cls-1{fill:none;}.cls-1,.cls-4{stroke:#444;stroke-miterlimit:10;}.cls-2,.cls-4{fill:#444;}.cls-3{fill:#fff;}</style></defs><title>watch</title><path class="cls-1" d="M10.174,36.768l-6.92-6.8a1.448,1.448,0,0,1,0-2.072l6.92-6.8a19.787,19.787,0,0,1,27.652,0l6.92,6.805a1.448,1.448,0,0,1,0,2.072l-6.92,6.805A19.787,19.787,0,0,1,10.174,36.768Z" transform="translate(-2.318 -4.519)"/><ellipse class="cls-1" cx="21.682" cy="24.408" rx="13.245" ry="13.024"/><ellipse class="cls-2" cx="21.682" cy="24.408" rx="9.337" ry="9.181"/><ellipse class="cls-3" cx="17.347" cy="20.128" rx="3.262" ry="3.208"/><rect class="cls-4" x="15.254" y="6.502" width="0.747" height="7.956" rx="0.373" transform="translate(-5.464 4.699) rotate(-30)"/><path class="cls-3" d="M28.988,34.684a7.494,7.494,0,0,0,3.383-4.324c.3-.921-1.15-1.315-1.446-.4a5.971,5.971,0,0,1-2.694,3.428c-.858.444-.1,1.739.757,1.295Z" transform="translate(-2.318 -4.519)"/><rect class="cls-4" x="32.361" y="6.502" width="0.747" height="7.956" rx="0.373" transform="translate(7.307 -19.482) rotate(30)"/><rect class="cls-4" x="21.49" y="0.5" width="0.747" height="7.956" rx="0.373"/></svg>