<svg id="레이어_1" data-name="레이어 1" xmlns="http://www.w3.org/2000/svg" viewBox="0 0 32.114 32.11"><defs><style>.cls-1{fill:#444;}</style></defs><title>write</title><rect class="cls-1" x="19.528" y="9.58" width="9.231" height="26.895" rx="0.619" transform="translate(16.721 49.533) rotate(-135)"/><path class="cls-1" d="M9.085,38.936a.694.694,0,0,1-.85-.85l1.029-3.842,1.03-3.841a.694.694,0,0,1,1.161-.311L14.267,32.9l2.812,2.812a.694.694,0,0,1-.311,1.161l-3.842,1.029Z" transform="translate(-8.211 -6.85)"/><rect class="cls-1" x="30.066" y="11.492" width="9.231" height="1.994" rx="0.619" transform="translate(42.162 38.995) rotate(-135)"/><path class="cls-1" d="M32.927,8.677a.628.628,0,0,1,.079-.95,4.613,4.613,0,0,1,6.442,6.442.628.628,0,0,1-.95.079Z" transform="translate(-8.211 -6.85)"/></svg>